<svg width="200" height="200" viewBox="0 0 200 200" fill="none" xmlns="http://www.w3.org/2000/svg">
<path d="M100 200C155.228 200 200 155.228 200 100C200 44.7715 155.228 0 100 0C44.7715 0 0 44.7715 0 100C0 155.228 44.7715 200 100 200Z" fill="white"/>
<path fill-rule="evenodd" clip-rule="evenodd" d="M100.581 21.6222C64.1611 21.6083 32.4611 46.5167 23.8611 81.9083C15.2611 117.297 32 153.978 64.3639 170.675V91.3528C64.3639 75.2306 77.4334 62.1639 93.5556 62.1639H108.15C124.269 62.1639 137.339 75.2306 137.339 91.3528V170.408C169.486 153.519 185.961 116.869 177.25 81.6139C168.542 46.3583 136.9 21.5944 100.583 21.6222H100.581Z" fill="#231F20"/>
<path fill-rule="evenodd" clip-rule="evenodd" d="M98.4029 130.903C94.2195 128.742 89.6806 130.364 85.5862 132.467C80.9751 134.833 76.3973 137.911 73.114 141.947C71.2945 144.164 69.7695 146.864 69.7695 149.808C69.7695 152.508 77.0418 147.686 77.7862 147.197C80.7375 145.156 83.8057 143.289 86.9751 141.606C89.2251 140.475 90.4751 139.758 92.9806 139.356C94.8148 139.143 96.6729 139.392 98.3862 140.081L98.4029 130.903ZM102.761 130.903C106.95 128.742 111.489 130.364 115.581 132.467C120.192 134.833 124.77 137.911 128.053 141.947C129.867 144.164 131.392 146.864 131.392 149.808C131.392 152.508 124.128 147.686 123.375 147.197C120.425 145.153 117.357 143.286 114.186 141.606C111.945 140.475 110.695 139.758 108.186 139.356C106.344 139.14 104.477 139.389 102.756 140.081L102.758 130.903H102.761Z" fill="#010101"/>
</svg>
